<?xml version="1.0" standalone="no"?><!DOCTYPE svg PUBLIC "-//W3C//DTD SVG 1.1//EN" "http://www.w3.org/Graphics/SVG/1.1/DTD/svg11.dtd"><svg t="1610698893749" class="icon" viewBox="0 0 1024 1024" version="1.1" xmlns="http://www.w3.org/2000/svg" p-id="5198" width="16" height="16" xmlns:xlink="http://www.w3.org/1999/xlink"><defs><style type="text/css"></style></defs><path d="M512 739.555556c-125.155556 0-227.555556-102.4-227.555556-227.555556s102.4-227.555556 227.555556-227.555556 227.555556 102.4 227.555556 227.555556-102.4 227.555556-227.555556 227.555556z m0-341.333334c-62.577778 0-113.777778 51.2-113.777778 113.777778s51.2 113.777778 113.777778 113.777778 113.777778-51.2 113.777778-113.777778-51.2-113.777778-113.777778-113.777778zM455.111111 0h113.777778v170.666667H455.111111zM455.111111 853.333333h113.777778v170.666667H455.111111zM713.102222 230.684444l120.718222-120.661333 80.440889 80.440889-120.661333 120.661333zM109.738667 833.536l120.661333-120.661333 80.440889 80.440889-120.661333 120.661333zM712.817778 793.6l80.497778-80.440889 120.661333 120.604445-80.440889 80.497777zM110.023111 190.179556L190.464 109.795556 311.125333 230.4 230.684444 310.840889zM1024 455.111111v113.777778h-170.666667V455.111111zM170.666667 455.111111v113.777778H0V455.111111z" fill="#0D1733" p-id="5199"></path></svg>