<?xml version="1.0" standalone="no"?><!DOCTYPE svg PUBLIC "-//W3C//DTD SVG 1.1//EN" "http://www.w3.org/Graphics/SVG/1.1/DTD/svg11.dtd"><svg t="1610698156083" class="icon" viewBox="0 0 1024 1024" version="1.1" xmlns="http://www.w3.org/2000/svg" p-id="3391" width="16" height="16" xmlns:xlink="http://www.w3.org/1999/xlink"><defs><style type="text/css"></style></defs><path d="M220.864 155.52l390.144 390.144A104.544 104.544 0 0 0 512 407.456a32 32 0 1 1 0-64 168.544 168.544 0 0 1 147.296 250.496l98.944 98.944c53.216-43.008 104.64-100.8 154.336-173.76l4.8-7.136-4.8-7.168c-119.904-175.968-250.08-264.064-390.944-267.904L512 236.8c-29.984 0-59.36 3.744-88.16 11.264a32 32 0 0 1-16.16-61.92A411.84 411.84 0 0 1 512 172.8c175.744 0 332.8 108.736 470.592 321.824a32 32 0 0 1 0 34.752c-56.416 87.264-116.064 157.024-178.912 208.96l47.744 47.744a32 32 0 0 1 0 45.248l-3.04 3.008a32 32 0 0 1-45.248 0l-55.168-55.136C673.504 827.04 594.816 851.2 512 851.2c-175.744 0-332.8-108.736-470.592-321.824a32 32 0 0 1 1.344-36.672l18.944-24.8c73.28-95.04 132.16-160.576 177.824-197.216L172.576 203.84a32 32 0 0 1 0-45.28l3.04-3.008a32 32 0 0 1 45.248 0zM120.768 496.128l-13.28 17.184 3.936 5.856c119.904 175.968 250.08 264.064 390.944 267.904L512 787.2c65.44 0 128.576-18.048 189.44-54.464l-86.912-86.976a168.544 168.544 0 0 1-236.288-236.288L285.12 316.288c-39.264 29.792-94.4 89.984-164.352 179.84z m286.72 15.872a104.544 104.544 0 0 0 161.152 87.872l-144.512-144.512a103.936 103.936 0 0 0-16.64 56.64z" fill="#717378" p-id="3392"></path></svg>