<?xml version="1.0" standalone="no"?><!DOCTYPE svg PUBLIC "-//W3C//DTD SVG 1.1//EN" "http://www.w3.org/Graphics/SVG/1.1/DTD/svg11.dtd"><svg t="1608794759117" class="icon" viewBox="0 0 1024 1024" version="1.1" xmlns="http://www.w3.org/2000/svg" p-id="3154" width="16" height="16" xmlns:xlink="http://www.w3.org/1999/xlink"><defs><style type="text/css"></style></defs><path d="M891.648 563.2a911.36 911.36 0 0 0-97.792 3.072c-29.44 2.048-62.464 5.376-99.584 10.24a911.104 911.104 0 0 0-113.92 22.272l150.016 248.32A98.56 98.56 0 0 1 742.4 885.76a102.4 102.4 0 0 1-4.608 39.424 103.936 103.936 0 0 1-18.944 34.56 97.024 97.024 0 0 1-32 25.6 92.928 92.928 0 0 1-39.168 13.056 100.608 100.608 0 0 1-39.168-4.608 107.264 107.264 0 0 1-34.816-18.944 103.936 103.936 0 0 1-25.6-32l-125.44-278.784a687.872 687.872 0 0 0-92.416 63.232 944.128 944.128 0 0 0-71.168 63.488 598.784 598.784 0 0 0-61.184 68.352L195.328 25.6z m0 0" p-id="3155"></path></svg>