<?xml version="1.0" standalone="no"?><!DOCTYPE svg PUBLIC "-//W3C//DTD SVG 1.1//EN" "http://www.w3.org/Graphics/SVG/1.1/DTD/svg11.dtd"><svg t="1610699206429" class="icon" viewBox="0 0 1024 1024" version="1.1" xmlns="http://www.w3.org/2000/svg" p-id="9182" width="16" height="16" xmlns:xlink="http://www.w3.org/1999/xlink"><defs><style type="text/css"></style></defs><path d="M512 912.3c-220.7 0-400.3-179.6-400.3-400.3S291.3 111.7 512 111.7 912.3 291.3 912.3 512 732.7 912.3 512 912.3z m0-744.7c-189.9 0-344.4 154.5-344.4 344.4S322.1 856.4 512 856.4 856.4 701.9 856.4 512 701.9 167.6 512 167.6z" p-id="9183"></path><path d="M512 512m-130.3 0a130.3 130.3 0 1 0 260.6 0 130.3 130.3 0 1 0-260.6 0Z" p-id="9184"></path><path d="M512 167.6c-15.4 0-27.9-12.5-27.9-27.9V27.9C484.1 12.5 496.6 0 512 0c15.4 0 27.9 12.5 27.9 27.9v111.7c0 15.5-12.5 28-27.9 28zM512 1024c-15.4 0-27.9-12.5-27.9-27.9V884.4c0-15.4 12.5-27.9 27.9-27.9 15.4 0 27.9 12.5 27.9 27.9v111.7c0 15.4-12.5 27.9-27.9 27.9zM996.1 539.9H884.4c-15.4 0-27.9-12.5-27.9-27.9 0-15.4 12.5-27.9 27.9-27.9h111.7c15.4 0 27.9 12.5 27.9 27.9 0 15.4-12.5 27.9-27.9 27.9zM139.6 539.9H27.9C12.5 539.9 0 527.4 0 512c0-15.4 12.5-27.9 27.9-27.9h111.7c15.4 0 27.9 12.5 27.9 27.9 0.1 15.4-12.4 27.9-27.9 27.9zM14 4V1M14 27v-3" p-id="9185"></path></svg>