<?xml version="1.0" standalone="no"?><!DOCTYPE svg PUBLIC "-//W3C//DTD SVG 1.1//EN" "http://www.w3.org/Graphics/SVG/1.1/DTD/svg11.dtd"><svg t="1610698341904" class="icon" viewBox="0 0 1024 1024" version="1.1" xmlns="http://www.w3.org/2000/svg" p-id="4177" width="16" height="16" xmlns:xlink="http://www.w3.org/1999/xlink"><defs><style type="text/css"></style></defs><path d="M886.63 278.63L745.37 137.37c-6-6-14.14-9.37-22.63-9.37H160c-17.67 0-32 14.33-32 32v704c0 17.67 14.33 32 32 32h704c17.67 0 32-14.33 32-32V301.25c0-8.48-3.37-16.62-9.37-22.62zM544 192v64c0 17.67 14.33 32 32 32s32-14.33 32-32v-64h32v192H384V192h160zM320 832V576h384v256H320z m512 0h-64V572.55c0-33.39-27.16-60.55-60.55-60.55h-390.9c-33.39 0-60.55 27.16-60.55 60.55V832h-64V192h128v228.96c0 14.94 12.11 27.04 27.04 27.04h329.91c14.94 0 27.04-12.11 27.04-27.04V192h5.49L832 314.51V832z" p-id="4178"></path></svg>